<?xml version="1.0" encoding="UTF-8" standalone="no"?>
<!DOCTYPE svg PUBLIC "-//W3C//DTD SVG 1.1//EN"
 "http://www.w3.org/Graphics/SVG/1.1/DTD/svg11.dtd">
<!-- Generated by graphviz version 2.43.0 (0)
 -->
<!-- Title: app_main Pages: 1 -->
<svg width="780pt" height="727pt"
 viewBox="0.00 0.00 780.00 726.50" xmlns="http://www.w3.org/2000/svg" xmlns:xlink="http://www.w3.org/1999/xlink">
<g id="graph0" class="graph" transform="scale(1 1) rotate(0) translate(4 722.5)">
<title>app_main</title>
<!-- Node1 -->
<g id="Node000001" class="node">
<title>Node1</title>
<g id="a_Node000001"><a xlink:title="Firmware entry point — bootstraps dotenv, Wi&#45;Fi, and HTTP server.">
<polygon fill="#999999" stroke="#666666" points="65,-278 0,-278 0,-259 65,-259 65,-278"/>
<text text-anchor="middle" x="32.5" y="-266" font-family="Helvetica,sans-Serif" font-size="10.00">app_main</text>
</a>
</g>
</g>
<!-- Node2 -->
<g id="Node000002" class="node">
<title>Node2</title>
<g id="a_Node000002"><a xlink:href="dotenv_8c.html#ae2c9e61eb3a2787ac6ebec1c9041986a" target="_top" xlink:title="Retrieve a string value by key.">
<polygon fill="white" stroke="#666666" points="772,-690 701,-690 701,-671 772,-671 772,-690"/>
<text text-anchor="middle" x="736.5" y="-678" font-family="Helvetica,sans-Serif" font-size="10.00">dotenv_get</text>
</a>
</g>
</g>
<!-- Node1&#45;&gt;Node2 -->
<g id="edge1_Node000001_Node000002" class="edge">
<title>Node1&#45;&gt;Node2</title>
<g id="a_edge1_Node000001_Node000002"><a xlink:title=" ">
<path fill="none" stroke="#63b8ff" d="M33.1,-278.09C31.9,-318.44 31.95,-477.04 101,-577.5 165.62,-671.52 201.41,-718.5 315.5,-718.5 315.5,-718.5 315.5,-718.5 457.5,-718.5 540.33,-718.5 635.78,-701.73 690.54,-690.48"/>
<polygon fill="#63b8ff" stroke="#63b8ff" points="691.53,-693.84 700.6,-688.37 690.1,-686.99 691.53,-693.84"/>
</a>
</g>
</g>
<!-- Node3 -->
<g id="Node000003" class="node">
<title>Node3</title>
<g id="a_Node000003"><a xlink:href="dotenv_8c.html#a2ee31323a3a574ee0c83a182684333a2" target="_top" xlink:title="Retrieve an integer value by key, falling back to a default.">
<polygon fill="white" stroke="#666666" points="501,-671 412,-671 412,-652 501,-652 501,-671"/>
<text text-anchor="middle" x="456.5" y="-659" font-family="Helvetica,sans-Serif" font-size="10.00">dotenv_get_int</text>
</a>
</g>
</g>
<!-- Node1&#45;&gt;Node3 -->
<g id="edge2_Node000001_Node000003" class="edge">
<title>Node1&#45;&gt;Node3</title>
<g id="a_edge2_Node000001_Node000003"><a xlink:title=" ">
<path fill="none" stroke="#63b8ff" d="M33.15,-278.21C32.37,-315.06 34.48,-447.93 101,-522.5 180.39,-611.49 323.93,-644.09 401.78,-655.58"/>
<polygon fill="#63b8ff" stroke="#63b8ff" points="401.47,-659.07 411.86,-657 402.45,-652.14 401.47,-659.07"/>
</a>
</g>
</g>
<!-- Node4 -->
<g id="Node000004" class="node">
<title>Node4</title>
<g id="a_Node000004"><a xlink:href="dotenv_8c.html#a8fb93214c1742d0ec3a5eb147f99f77b" target="_top" xlink:title="Load and parse the embedded .env file.">
<polygon fill="white" stroke="#666666" points="196.5,-352 125.5,-352 125.5,-333 196.5,-333 196.5,-352"/>
<text text-anchor="middle" x="161" y="-340" font-family="Helvetica,sans-Serif" font-size="10.00">dotenv_init</text>
</a>
</g>
</g>
<!-- Node1&#45;&gt;Node4 -->
<g id="edge4_Node000001_Node000004" class="edge">
<title>Node1&#45;&gt;Node4</title>
<g id="a_edge4_Node000001_Node000004"><a xlink:title=" ">
<path fill="none" stroke="#63b8ff" d="M42.66,-278.19C54.88,-290.58 77.68,-311.93 101,-324.5 105.6,-326.98 110.58,-329.16 115.64,-331.08"/>
<polygon fill="#63b8ff" stroke="#63b8ff" points="114.78,-334.49 125.38,-334.44 117.07,-327.87 114.78,-334.49"/>
</a>
</g>
</g>
<!-- Node6 -->
<g id="Node000006" class="node">
<title>Node6</title>
<g id="a_Node000006"><a xlink:href="test__dotenv_8c.html#ab42df83b6d4477b6405f1d7dfb45a9ae" target="_top" xlink:title=" ">
<polygon fill="white" stroke="#666666" points="217.5,-315 104.5,-315 104.5,-296 217.5,-296 217.5,-315"/>
<text text-anchor="middle" x="161" y="-303" font-family="Helvetica,sans-Serif" font-size="10.00">test_dotenv_anchor</text>
</a>
</g>
</g>
<!-- Node1&#45;&gt;Node6 -->
<g id="edge6_Node000001_Node000006" class="edge">
<title>Node1&#45;&gt;Node6</title>
<g id="a_edge6_Node000001_Node000006"><a xlink:title=" ">
<path fill="none" stroke="#63b8ff" d="M65.09,-277.74C81,-282.39 100.5,-288.1 117.68,-293.12"/>
<polygon fill="#63b8ff" stroke="#63b8ff" points="116.91,-296.54 127.49,-295.99 118.87,-289.82 116.91,-296.54"/>
</a>
</g>
</g>
<!-- Node7 -->
<g id="Node000007" class="node">
<title>Node7</title>
<g id="a_Node000007"><a xlink:href="test__web___a_p_i_8c.html#acbd12dc5ef7d3ed8a16cbfee27fa341e" target="_top" xlink:title=" ">
<polygon fill="white" stroke="#666666" points="221,-278 101,-278 101,-259 221,-259 221,-278"/>
<text text-anchor="middle" x="161" y="-266" font-family="Helvetica,sans-Serif" font-size="10.00">test_web_API_anchor</text>
</a>
</g>
</g>
<!-- Node1&#45;&gt;Node7 -->
<g id="edge7_Node000001_Node000007" class="edge">
<title>Node1&#45;&gt;Node7</title>
<g id="a_edge7_Node000001_Node000007"><a xlink:title=" ">
<path fill="none" stroke="#63b8ff" d="M65.09,-268.5C72.96,-268.5 81.71,-268.5 90.63,-268.5"/>
<polygon fill="#63b8ff" stroke="#63b8ff" points="90.72,-272 100.72,-268.5 90.72,-265 90.72,-272"/>
</a>
</g>
</g>
<!-- Node8 -->
<g id="Node000008" class="node">
<title>Node8</title>
<g id="a_Node000008"><a xlink:href="test__wol_8c.html#a61b49ff80a189051700e4b81cd297ce3" target="_top" xlink:title=" ">
<polygon fill="white" stroke="#666666" points="209,-241 113,-241 113,-222 209,-222 209,-241"/>
<text text-anchor="middle" x="161" y="-229" font-family="Helvetica,sans-Serif" font-size="10.00">test_wol_anchor</text>
</a>
</g>
</g>
<!-- Node1&#45;&gt;Node8 -->
<g id="edge8_Node000001_Node000008" class="edge">
<title>Node1&#45;&gt;Node8</title>
<g id="a_edge8_Node000001_Node000008"><a xlink:title=" ">
<path fill="none" stroke="#63b8ff" d="M65.09,-259.26C81,-254.61 100.5,-248.9 117.68,-243.88"/>
<polygon fill="#63b8ff" stroke="#63b8ff" points="118.87,-247.18 127.49,-241.01 116.91,-240.46 118.87,-247.18"/>
</a>
</g>
</g>
<!-- Node9 -->
<g id="Node000009" class="node">
<title>Node9</title>
<g id="a_Node000009"><a xlink:href="web__util_8c.html#a71620b2ae09ea356192cbd1810788d4b" target="_top" xlink:title="Check whether the HTTP server is currently running.">
<polygon fill="white" stroke="#666666" points="197.5,-204 124.5,-204 124.5,-185 197.5,-185 197.5,-204"/>
<text text-anchor="middle" x="161" y="-192" font-family="Helvetica,sans-Serif" font-size="10.00">web_health</text>
</a>
</g>
</g>
<!-- Node1&#45;&gt;Node9 -->
<g id="edge9_Node000001_Node000009" class="edge">
<title>Node1&#45;&gt;Node9</title>
<g id="a_edge9_Node000001_Node000009"><a xlink:title=" ">
<path fill="none" stroke="#63b8ff" d="M43.15,-258.63C55.54,-246.47 78.15,-225.91 101,-213.5 105.32,-211.15 109.98,-209.04 114.72,-207.14"/>
<polygon fill="#63b8ff" stroke="#63b8ff" points="116.29,-210.3 124.48,-203.58 113.89,-203.72 116.29,-210.3"/>
</a>
</g>
</g>
<!-- Node10 -->
<g id="Node000010" class="node">
<title>Node10</title>
<g id="a_Node000010"><a xlink:href="web__util_8c.html#a0863e0f49b763624af7de46c1485a702" target="_top" xlink:title="Store the HTTPS server port.">
<polygon fill="white" stroke="#666666" points="190,-167 132,-167 132,-148 190,-148 190,-167"/>
<text text-anchor="middle" x="161" y="-155" font-family="Helvetica,sans-Serif" font-size="10.00">web_init</text>
</a>
</g>
</g>
<!-- Node1&#45;&gt;Node10 -->
<g id="edge10_Node000001_Node000010" class="edge">
<title>Node1&#45;&gt;Node10</title>
<g id="a_edge10_Node000001_Node000010"><a xlink:title=" ">
<path fill="none" stroke="#63b8ff" d="M37.97,-258.88C47.14,-240.22 69.83,-198.98 101,-176.5 107.31,-171.95 114.77,-168.45 122.21,-165.78"/>
<polygon fill="#63b8ff" stroke="#63b8ff" points="123.42,-169.07 131.9,-162.72 121.31,-162.39 123.42,-169.07"/>
</a>
</g>
</g>
<!-- Node11 -->
<g id="Node000011" class="node">
<title>Node11</title>
<g id="a_Node000011"><a xlink:href="web__util_8c.html#a197dc25d543cc5cba8d05cbfb9934167" target="_top" xlink:title="Start the HTTPS server and register all URI handlers.">
<polygon fill="white" stroke="#666666" points="193.5,-513 128.5,-513 128.5,-494 193.5,-494 193.5,-513"/>
<text text-anchor="middle" x="161" y="-501" font-family="Helvetica,sans-Serif" font-size="10.00">web_start</text>
</a>
</g>
</g>
<!-- Node1&#45;&gt;Node11 -->
<g id="edge11_Node000001_Node000011" class="edge">
<title>Node1&#45;&gt;Node11</title>
<g id="a_edge11_Node000001_Node000011"><a xlink:title=" ">
<path fill="none" stroke="#63b8ff" d="M36.36,-278.22C44.28,-304.37 68.13,-377.9 101,-432.5 113.02,-452.47 130.43,-472.67 143.22,-486.39"/>
<polygon fill="#63b8ff" stroke="#63b8ff" points="140.72,-488.83 150.14,-493.67 145.79,-484.01 140.72,-488.83"/>
</a>
</g>
</g>
<!-- Node18 -->
<g id="Node000018" class="node">
<title>Node18</title>
<g id="a_Node000018"><a xlink:href="wifi__connect_8c.html#aa04cb005500914912c8d6644e53cd9a8" target="_top" xlink:title="Check whether the station is connected and has an IP.">
<polygon fill="white" stroke="#666666" points="771.5,-447 701.5,-447 701.5,-428 771.5,-428 771.5,-447"/>
<text text-anchor="middle" x="736.5" y="-435" font-family="Helvetica,sans-Serif" font-size="10.00">wifi_health</text>
</a>
</g>
</g>
<!-- Node1&#45;&gt;Node18 -->
<g id="edge27_Node000001_Node000018" class="edge">
<title>Node1&#45;&gt;Node18</title>
<g id="a_edge27_Node000001_Node000018"><a xlink:title=" ">
<path fill="none" stroke="#63b8ff" d="M35.83,-278.28C41.96,-301.72 60.92,-361.15 101,-388.5 180.52,-442.75 219.24,-418.5 315.5,-418.5 315.5,-418.5 315.5,-418.5 457.5,-418.5 540.21,-418.5 636.45,-426.98 691.25,-432.61"/>
<polygon fill="#63b8ff" stroke="#63b8ff" points="691,-436.1 701.31,-433.66 691.73,-429.14 691,-436.1"/>
</a>
</g>
</g>
<!-- Node22 -->
<g id="Node000022" class="node">
<title>Node22</title>
<g id="a_Node000022"><a xlink:href="wifi__connect_8c.html#ac23b42ab2a519b16d5bda35317b4a8a5" target="_top" xlink:title="Start the Wi&#45;Fi station.">
<polygon fill="white" stroke="#666666" points="199.5,-130 122.5,-130 122.5,-111 199.5,-111 199.5,-130"/>
<text text-anchor="middle" x="161" y="-118" font-family="Helvetica,sans-Serif" font-size="10.00">wifi_connect</text>
</a>
</g>
</g>
<!-- Node1&#45;&gt;Node22 -->
<g id="edge26_Node000001_Node000022" class="edge">
<title>Node1&#45;&gt;Node22</title>
<g id="a_edge26_Node000001_Node000022"><a xlink:title=" ">
<path fill="none" stroke="#63b8ff" d="M35.84,-258.81C42.12,-234.91 61.57,-172.72 101,-139.5 104.66,-136.41 108.84,-133.82 113.24,-131.65"/>
<polygon fill="#63b8ff" stroke="#63b8ff" points="114.62,-134.87 122.48,-127.76 111.91,-128.42 114.62,-134.87"/>
</a>
</g>
</g>
<!-- Node23 -->
<g id="Node000023" class="node">
<title>Node23</title>
<g id="a_Node000023"><a xlink:href="wifi__connect_8c.html#aa143ae03746707a739b2572089d036b6" target="_top" xlink:title="Initialise NVS, netif, event loop, and Wi&#45;Fi station.">
<polygon fill="white" stroke="#666666" points="188.5,-93 133.5,-93 133.5,-74 188.5,-74 188.5,-93"/>
<text text-anchor="middle" x="161" y="-81" font-family="Helvetica,sans-Serif" font-size="10.00">wifi_init</text>
</a>
</g>
</g>
<!-- Node1&#45;&gt;Node23 -->
<g id="edge28_Node000001_Node000023" class="edge">
<title>Node1&#45;&gt;Node23</title>
<g id="a_edge28_Node000001_Node000023"><a xlink:title=" ">
<path fill="none" stroke="#63b8ff" d="M34.62,-258.65C38.37,-230.17 53.11,-146.94 101,-102.5 107.28,-96.67 115.36,-92.63 123.52,-89.83"/>
<polygon fill="#63b8ff" stroke="#63b8ff" points="124.74,-93.12 133.38,-86.99 122.81,-86.39 124.74,-93.12"/>
</a>
</g>
</g>
<!-- Node26 -->
<g id="Node000026" class="node">
<title>Node26</title>
<g id="a_Node000026"><a xlink:href="wifi__connect_8c.html#aab73ad30ccbf49bc47fb84b513726ae4" target="_top" xlink:title="Attempt to reconnect if currently disconnected.">
<polygon fill="white" stroke="#666666" points="347.5,-390 285.5,-390 285.5,-371 347.5,-371 347.5,-390"/>
<text text-anchor="middle" x="316.5" y="-378" font-family="Helvetica,sans-Serif" font-size="10.00">wifi_retry</text>
</a>
</g>
</g>
<!-- Node1&#45;&gt;Node26 -->
<g id="edge31_Node000001_Node000026" class="edge">
<title>Node1&#45;&gt;Node26</title>
<g id="a_edge31_Node000001_Node000026"><a xlink:title=" ">
<path fill="none" stroke="#63b8ff" d="M37.28,-278.25C45.49,-297.95 66.98,-342.22 101,-361.5 155.31,-392.28 230.04,-390.99 275.44,-386.37"/>
<polygon fill="#63b8ff" stroke="#63b8ff" points="275.94,-389.84 285.49,-385.24 275.16,-382.88 275.94,-389.84"/>
</a>
</g>
</g>
<!-- Node27 -->
<g id="Node000027" class="node">
<title>Node27</title>
<g id="a_Node000027"><a xlink:href="wifi__connect_8c.html#a0ec751b6cc472819ebff6d3d396b47c8" target="_top" xlink:title="Wait up to timeout_ms milliseconds for the station to obtain a DHCP lease.">
<polygon fill="white" stroke="#666666" points="207.5,-56 114.5,-56 114.5,-37 207.5,-37 207.5,-56"/>
<text text-anchor="middle" x="161" y="-44" font-family="Helvetica,sans-Serif" font-size="10.00">wifi_wait_for_ip</text>
</a>
</g>
</g>
<!-- Node1&#45;&gt;Node27 -->
<g id="edge33_Node000001_Node000027" class="edge">
<title>Node1&#45;&gt;Node27</title>
<g id="a_edge33_Node000001_Node000027"><a xlink:title=" ">
<path fill="none" stroke="#63b8ff" d="M33.77,-258.87C35.22,-226.68 44.27,-121.7 101,-65.5 102.46,-64.05 104.04,-62.71 105.69,-61.48"/>
<polygon fill="#63b8ff" stroke="#63b8ff" points="107.84,-64.27 114.59,-56.11 104.22,-58.28 107.84,-64.27"/>
</a>
</g>
</g>
<!-- Node28 -->
<g id="Node000028" class="node">
<title>Node28</title>
<g id="a_Node000028"><a xlink:href="wol_8c.html#a2e7e6c8f427d7032bf89ffd82e344799" target="_top" xlink:title="Initialise WoL destination from string parameters.">
<polygon fill="white" stroke="#666666" points="188.5,-19 133.5,-19 133.5,0 188.5,0 188.5,-19"/>
<text text-anchor="middle" x="161" y="-7" font-family="Helvetica,sans-Serif" font-size="10.00">wol_init</text>
</a>
</g>
</g>
<!-- Node1&#45;&gt;Node28 -->
<g id="edge34_Node000001_Node000028" class="edge">
<title>Node1&#45;&gt;Node28</title>
<g id="a_edge34_Node000001_Node000028"><a xlink:title=" ">
<path fill="none" stroke="#63b8ff" d="M33.14,-258.62C32.4,-222.38 34.8,-95.25 101,-27.5 107.08,-21.28 115.24,-17.19 123.55,-14.52"/>
<polygon fill="#63b8ff" stroke="#63b8ff" points="124.47,-17.89 133.26,-11.97 122.69,-11.12 124.47,-17.89"/>
</a>
</g>
</g>
<!-- Node3&#45;&gt;Node2 -->
<g id="edge3_Node000003_Node000002" class="edge">
<title>Node3&#45;&gt;Node2</title>
<g id="a_edge3_Node000003_Node000002"><a xlink:title=" ">
<path fill="none" stroke="#63b8ff" d="M501.24,-664.49C552.89,-668.02 638.33,-673.86 690.51,-677.42"/>
<polygon fill="#63b8ff" stroke="#63b8ff" points="690.58,-680.94 700.8,-678.13 691.06,-673.95 690.58,-680.94"/>
</a>
</g>
</g>
<!-- Node5 -->
<g id="Node000005" class="node">
<title>Node5</title>
<g id="a_Node000005"><a xlink:href="dotenv_8c.html#ad2b5b7df9efbd9c0c986df28e7e66e89" target="_top" xlink:title="Parse a single &quot;KEY=VALUE&quot; line into the static table.">
<polygon fill="white" stroke="#666666" points="369.5,-352 263.5,-352 263.5,-333 369.5,-333 369.5,-352"/>
<text text-anchor="middle" x="316.5" y="-340" font-family="Helvetica,sans-Serif" font-size="10.00">dotenv_parse_line</text>
</a>
</g>
</g>
<!-- Node4&#45;&gt;Node5 -->
<g id="edge5_Node000004_Node000005" class="edge">
<title>Node4&#45;&gt;Node5</title>
<g id="a_edge5_Node000004_Node000005"><a xlink:title=" ">
<path fill="none" stroke="#63b8ff" d="M196.83,-342.5C213.48,-342.5 233.92,-342.5 253.11,-342.5"/>
<polygon fill="#63b8ff" stroke="#63b8ff" points="253.31,-346 263.31,-342.5 253.31,-339 253.31,-346"/>
</a>
</g>
</g>
<!-- Node12 -->
<g id="Node000012" class="node">
<title>Node12</title>
<g id="a_Node000012"><a xlink:href="web___a_p_i_8c.html#a96795f15e1c7bfe5b1eac458acb683d3" target="_top" xlink:title="Register all URI handlers.">
<polygon fill="white" stroke="#666666" points="356,-560 277,-560 277,-541 356,-541 356,-560"/>
<text text-anchor="middle" x="316.5" y="-548" font-family="Helvetica,sans-Serif" font-size="10.00">web_API_init</text>
</a>
</g>
</g>
<!-- Node11&#45;&gt;Node12 -->
<g id="edge12_Node000011_Node000012" class="edge">
<title>Node11&#45;&gt;Node12</title>
<g id="a_edge12_Node000011_Node000012"><a xlink:title=" ">
<path fill="none" stroke="#63b8ff" d="M193.06,-513.01C216.5,-520.19 248.86,-530.1 274.43,-537.93"/>
<polygon fill="#63b8ff" stroke="#63b8ff" points="273.63,-541.34 284.22,-540.92 275.68,-534.65 273.63,-541.34"/>
</a>
</g>
</g>
<!-- Node13 -->
<g id="Node000013" class="node">
<title>Node13</title>
<g id="a_Node000013"><a xlink:href="web___a_p_i_8c.html#a265fec6f90a423c909c5b5af196310ca" target="_top" xlink:title="Serve an embedded static file matched by request URI.">
<polygon fill="white" stroke="#666666" points="499.5,-578 413.5,-578 413.5,-559 499.5,-559 499.5,-578"/>
<text text-anchor="middle" x="456.5" y="-566" font-family="Helvetica,sans-Serif" font-size="10.00">static_handler</text>
</a>
</g>
</g>
<!-- Node12&#45;&gt;Node13 -->
<g id="edge13_Node000012_Node000013" class="edge">
<title>Node12&#45;&gt;Node13</title>
<g id="a_edge13_Node000012_Node000013"><a xlink:title=" ">
<path fill="none" stroke="#63b8ff" d="M356.31,-555.56C370.83,-557.46 387.56,-559.64 403.11,-561.67"/>
<polygon fill="#63b8ff" stroke="#63b8ff" points="402.75,-565.15 413.11,-562.97 403.65,-558.21 402.75,-565.15"/>
</a>
</g>
</g>
<!-- Node14 -->
<g id="Node000014" class="node">
<title>Node14</title>
<g id="a_Node000014"><a xlink:href="web___a_p_i_8c.html#adc7b4f6e2978a7866fa572b720f94d61" target="_top" xlink:title="Build and send a /api/status JSON response.">
<polygon fill="white" stroke="#666666" points="501,-541 412,-541 412,-522 501,-522 501,-541"/>
<text text-anchor="middle" x="456.5" y="-529" font-family="Helvetica,sans-Serif" font-size="10.00">status_handler</text>
</a>
</g>
</g>
<!-- Node12&#45;&gt;Node14 -->
<g id="edge14_Node000012_Node000014" class="edge">
<title>Node12&#45;&gt;Node14</title>
<g id="a_edge14_Node000012_Node000014"><a xlink:title=" ">
<path fill="none" stroke="#63b8ff" d="M356.31,-545.16C370.3,-543.23 386.35,-541.02 401.41,-538.95"/>
<polygon fill="#63b8ff" stroke="#63b8ff" points="402.21,-542.37 411.64,-537.54 401.26,-535.44 402.21,-542.37"/>
</a>
</g>
</g>
<!-- Node20 -->
<g id="Node000020" class="node">
<title>Node20</title>
<g id="a_Node000020"><a xlink:href="web___a_p_i_8c.html#a10bce792fd3c3117bc79da4a54e28370" target="_top" xlink:title="Trigger a WoL send and return JSON status.">
<polygon fill="white" stroke="#666666" points="494.5,-615 418.5,-615 418.5,-596 494.5,-596 494.5,-615"/>
<text text-anchor="middle" x="456.5" y="-603" font-family="Helvetica,sans-Serif" font-size="10.00">wol_handler</text>
</a>
</g>
</g>
<!-- Node12&#45;&gt;Node20 -->
<g id="edge22_Node000012_Node000020" class="edge">
<title>Node12&#45;&gt;Node20</title>
<g id="a_edge22_Node000012_Node000020"><a xlink:title=" ">
<path fill="none" stroke="#63b8ff" d="M341.54,-560.08C363.76,-568.94 397.01,-582.19 421.87,-592.09"/>
<polygon fill="#63b8ff" stroke="#63b8ff" points="420.69,-595.39 431.27,-595.84 423.28,-588.89 420.69,-595.39"/>
</a>
</g>
</g>
<!-- Node15 -->
<g id="Node000015" class="node">
<title>Node15</title>
<g id="a_Node000015"><a xlink:href="web___a_p_i_8c.html#a2b6882c122937423d51dd4fc88591f76" target="_top" xlink:title="Validate X&#45;API&#45;Key via constant&#45;time compare and reject on failure.">
<polygon fill="white" stroke="#666666" points="654.5,-578 547.5,-578 547.5,-559 654.5,-559 654.5,-578"/>
<text text-anchor="middle" x="601" y="-566" font-family="Helvetica,sans-Serif" font-size="10.00">api_auth_or_reject</text>
</a>
</g>
</g>
<!-- Node14&#45;&gt;Node15 -->
<g id="edge15_Node000014_Node000015" class="edge">
<title>Node14&#45;&gt;Node15</title>
<g id="a_edge15_Node000014_Node000015"><a xlink:title=" ">
<path fill="none" stroke="#63b8ff" d="M494.2,-541.03C512.17,-545.7 534.02,-551.37 553.19,-556.35"/>
<polygon fill="#63b8ff" stroke="#63b8ff" points="552.37,-559.75 562.93,-558.88 554.13,-552.97 552.37,-559.75"/>
</a>
</g>
</g>
<!-- Node16 -->
<g id="Node000016" class="node">
<title>Node16</title>
<g id="a_Node000016"><a xlink:href="web___a_p_i_8c.html#ad930ad5328debdce3e3ac83ae3c0dc81" target="_top" xlink:title="Map esp_chip_model_t enum to a human&#45;readable string.">
<polygon fill="white" stroke="#666666" points="646.5,-541 555.5,-541 555.5,-522 646.5,-522 646.5,-541"/>
<text text-anchor="middle" x="601" y="-529" font-family="Helvetica,sans-Serif" font-size="10.00">chip_model_str</text>
</a>
</g>
</g>
<!-- Node14&#45;&gt;Node16 -->
<g id="edge17_Node000014_Node000016" class="edge">
<title>Node14&#45;&gt;Node16</title>
<g id="a_edge17_Node000014_Node000016"><a xlink:title=" ">
<path fill="none" stroke="#63b8ff" d="M501.03,-531.5C514.86,-531.5 530.34,-531.5 544.88,-531.5"/>
<polygon fill="#63b8ff" stroke="#63b8ff" points="545.26,-535 555.26,-531.5 545.26,-528 545.26,-535"/>
</a>
</g>
</g>
<!-- Node17 -->
<g id="Node000017" class="node">
<title>Node17</title>
<g id="a_Node000017"><a xlink:href="wifi__connect_8c.html#a64941b79700fa76bbb2ae3f6e1cc0421" target="_top" xlink:title="Non&#45;blocking IP getter.">
<polygon fill="white" stroke="#666666" points="637,-504 565,-504 565,-485 637,-485 637,-504"/>
<text text-anchor="middle" x="601" y="-492" font-family="Helvetica,sans-Serif" font-size="10.00">get_LAN_ip</text>
</a>
</g>
</g>
<!-- Node14&#45;&gt;Node17 -->
<g id="edge18_Node000014_Node000017" class="edge">
<title>Node14&#45;&gt;Node17</title>
<g id="a_edge18_Node000014_Node000017"><a xlink:title=" ">
<path fill="none" stroke="#63b8ff" d="M494.2,-521.97C512.74,-517.16 535.39,-511.28 554.98,-506.19"/>
<polygon fill="#63b8ff" stroke="#63b8ff" points="556.1,-509.51 564.9,-503.61 554.34,-502.74 556.1,-509.51"/>
</a>
</g>
</g>
<!-- Node14&#45;&gt;Node18 -->
<g id="edge21_Node000014_Node000018" class="edge">
<title>Node14&#45;&gt;Node18</title>
<g id="a_edge21_Node000014_Node000018"><a xlink:title=" ">
<path fill="none" stroke="#63b8ff" d="M468.21,-521.9C482.73,-509.43 509.94,-487.93 537,-476.5 587.41,-455.21 649.98,-445.39 691.24,-440.96"/>
<polygon fill="#63b8ff" stroke="#63b8ff" points="691.65,-444.44 701.25,-439.95 690.95,-437.47 691.65,-444.44"/>
</a>
</g>
</g>
<!-- Node19 -->
<g id="Node000019" class="node">
<title>Node19</title>
<g id="a_Node000019"><a xlink:href="web___a_p_i_8c.html#a564c55211d6c33d4e62a94589eca34bf" target="_top" xlink:title="Enforce low&#45;memory request rejection to protect heap stability.">
<polygon fill="white" stroke="#666666" points="665,-615 537,-615 537,-596 665,-596 665,-615"/>
<text text-anchor="middle" x="601" y="-603" font-family="Helvetica,sans-Serif" font-size="10.00">heap_is_safe_or_reject</text>
</a>
</g>
</g>
<!-- Node14&#45;&gt;Node19 -->
<g id="edge20_Node000014_Node000019" class="edge">
<title>Node14&#45;&gt;Node19</title>
<g id="a_edge20_Node000014_Node000019"><a xlink:title=" ">
<path fill="none" stroke="#63b8ff" d="M484.14,-541.18C489.92,-543.81 495.85,-546.94 501,-550.5 519.87,-563.56 517.31,-575.73 537,-587.5 539.83,-589.19 542.83,-590.73 545.92,-592.13"/>
<polygon fill="#63b8ff" stroke="#63b8ff" points="544.81,-595.46 555.4,-595.93 547.42,-588.96 544.81,-595.46"/>
</a>
</g>
</g>
<!-- Node15&#45;&gt;Node2 -->
<g id="edge16_Node000015_Node000002" class="edge">
<title>Node15&#45;&gt;Node2</title>
<g id="a_edge16_Node000015_Node000002"><a xlink:title=" ">
<path fill="none" stroke="#63b8ff" d="M646.67,-578.1C653.14,-580.57 659.47,-583.65 665,-587.5 692.86,-606.87 714.44,-640.7 726.03,-661.78"/>
<polygon fill="#63b8ff" stroke="#63b8ff" points="723,-663.53 730.78,-670.73 729.19,-660.25 723,-663.53"/>
</a>
</g>
</g>
<!-- Node17&#45;&gt;Node18 -->
<g id="edge19_Node000017_Node000018" class="edge">
<title>Node17&#45;&gt;Node18</title>
<g id="a_edge19_Node000017_Node000018"><a xlink:title=" ">
<path fill="none" stroke="#63b8ff" d="M628.53,-484.89C639.85,-480.66 653.15,-475.52 665,-470.5 678.88,-464.62 694.05,-457.59 706.75,-451.54"/>
<polygon fill="#63b8ff" stroke="#63b8ff" points="708.42,-454.62 715.92,-447.14 705.39,-448.31 708.42,-454.62"/>
</a>
</g>
</g>
<!-- Node20&#45;&gt;Node15 -->
<g id="edge23_Node000020_Node000015" class="edge">
<title>Node20&#45;&gt;Node15</title>
<g id="a_edge23_Node000020_Node000015"><a xlink:title=" ">
<path fill="none" stroke="#63b8ff" d="M494.2,-595.97C512.17,-591.3 534.02,-585.63 553.19,-580.65"/>
<polygon fill="#63b8ff" stroke="#63b8ff" points="554.13,-584.03 562.93,-578.12 552.37,-577.25 554.13,-584.03"/>
</a>
</g>
</g>
<!-- Node20&#45;&gt;Node19 -->
<g id="edge24_Node000020_Node000019" class="edge">
<title>Node20&#45;&gt;Node19</title>
<g id="a_edge24_Node000020_Node000019"><a xlink:title=" ">
<path fill="none" stroke="#63b8ff" d="M494.57,-605.5C504.48,-605.5 515.55,-605.5 526.69,-605.5"/>
<polygon fill="#63b8ff" stroke="#63b8ff" points="526.9,-609 536.9,-605.5 526.9,-602 526.9,-609"/>
</a>
</g>
</g>
<!-- Node21 -->
<g id="Node000021" class="node">
<title>Node21</title>
<g id="a_Node000021"><a xlink:href="wol_8c.html#a2d0697ed6102c1b1482f3696551d797c" target="_top" xlink:title="Send a Wake&#45;on&#45;LAN magic packet over UDP broadcast.">
<polygon fill="white" stroke="#666666" points="632,-652 570,-652 570,-633 632,-633 632,-652"/>
<text text-anchor="middle" x="601" y="-640" font-family="Helvetica,sans-Serif" font-size="10.00">wol_send</text>
</a>
</g>
</g>
<!-- Node20&#45;&gt;Node21 -->
<g id="edge25_Node000020_Node000021" class="edge">
<title>Node20&#45;&gt;Node21</title>
<g id="a_edge25_Node000020_Node000021"><a xlink:title=" ">
<path fill="none" stroke="#63b8ff" d="M494.2,-615.03C514.32,-620.25 539.3,-626.74 559.94,-632.1"/>
<polygon fill="#63b8ff" stroke="#63b8ff" points="559.12,-635.5 569.68,-634.63 560.88,-628.73 559.12,-635.5"/>
</a>
</g>
</g>
<!-- Node24 -->
<g id="Node000024" class="node">
<title>Node24</title>
<g id="a_Node000024"><a xlink:href="wifi__connect_8c.html#aa4d4f01b4271619dfa58a8ac9d73e951" target="_top" xlink:title="Stop DHCP on the STA netif and apply static_ip.">
<polygon fill="white" stroke="#666666" points="361.5,-112 271.5,-112 271.5,-93 361.5,-93 361.5,-112"/>
<text text-anchor="middle" x="316.5" y="-100" font-family="Helvetica,sans-Serif" font-size="10.00">apply_static_ip</text>
</a>
</g>
</g>
<!-- Node23&#45;&gt;Node24 -->
<g id="edge29_Node000023_Node000024" class="edge">
<title>Node23&#45;&gt;Node24</title>
<g id="a_edge29_Node000023_Node000024"><a xlink:title=" ">
<path fill="none" stroke="#63b8ff" d="M188.74,-86.81C208.74,-89.29 236.78,-92.76 261.4,-95.8"/>
<polygon fill="#63b8ff" stroke="#63b8ff" points="261,-99.28 271.35,-97.04 261.86,-92.33 261,-99.28"/>
</a>
</g>
</g>
<!-- Node25 -->
<g id="Node000025" class="node">
<title>Node25</title>
<g id="a_Node000025"><a xlink:href="wifi__connect_8c.html#ab89f8a7d7357e4fb0e466836024c7f9c" target="_top" xlink:title="System event callback registered for WIFI_EVENT and IP_EVENT.">
<polygon fill="white" stroke="#666666" points="359.5,-75 273.5,-75 273.5,-56 359.5,-56 359.5,-75"/>
<text text-anchor="middle" x="316.5" y="-63" font-family="Helvetica,sans-Serif" font-size="10.00">event_handler</text>
</a>
</g>
</g>
<!-- Node23&#45;&gt;Node25 -->
<g id="edge30_Node000023_Node000025" class="edge">
<title>Node23&#45;&gt;Node25</title>
<g id="a_edge30_Node000023_Node000025"><a xlink:title=" ">
<path fill="none" stroke="#63b8ff" d="M188.74,-80.36C209.27,-77.96 238.27,-74.56 263.34,-71.62"/>
<polygon fill="#63b8ff" stroke="#63b8ff" points="263.93,-75.07 273.45,-70.43 263.11,-68.12 263.93,-75.07"/>
</a>
</g>
</g>
<!-- Node26&#45;&gt;Node18 -->
<g id="edge32_Node000026_Node000018" class="edge">
<title>Node26&#45;&gt;Node18</title>
<g id="a_edge32_Node000026_Node000018"><a xlink:title=" ">
<path fill="none" stroke="#63b8ff" d="M347.84,-378.9C408.97,-376.49 550.84,-374.94 665,-404.5 680.9,-408.62 697.59,-416.26 710.73,-423.15"/>
<polygon fill="#63b8ff" stroke="#63b8ff" points="709.16,-426.28 719.62,-427.98 712.5,-420.13 709.16,-426.28"/>
</a>
</g>
</g>
<!-- Node29 -->
<g id="Node000029" class="node">
<title>Node29</title>
<g id="a_Node000029"><a xlink:href="wol_8c.html#abe112e25a5327683b56c8c89646c7353" target="_top" xlink:title="Validate MAC address string format (XX:XX:XX:XX:XX:XX).">
<polygon fill="white" stroke="#666666" points="376,-19 257,-19 257,0 376,0 376,-19"/>
<text text-anchor="middle" x="316.5" y="-7" font-family="Helvetica,sans-Serif" font-size="10.00">is_valid_mac_format</text>
</a>
</g>
</g>
<!-- Node28&#45;&gt;Node29 -->
<g id="edge35_Node000028_Node000029" class="edge">
<title>Node28&#45;&gt;Node29</title>
<g id="a_edge35_Node000028_Node000029"><a xlink:title=" ">
<path fill="none" stroke="#63b8ff" d="M188.74,-9.5C204.9,-9.5 226.31,-9.5 246.93,-9.5"/>
<polygon fill="#63b8ff" stroke="#63b8ff" points="246.96,-13 256.96,-9.5 246.95,-6 246.96,-13"/>
</a>
</g>
</g>
<!-- Node30 -->
<g id="Node000030" class="node">
<title>Node30</title>
<g id="a_Node000030"><a xlink:href="wol_8c.html#a76515ebe8cb345475df5ce39c3e75a0f" target="_top" xlink:title="Check whether a character is a valid hex digit (0&#45;9, a&#45;f, A&#45;F).">
<polygon fill="white" stroke="#666666" points="493.5,-19 419.5,-19 419.5,0 493.5,0 493.5,-19"/>
<text text-anchor="middle" x="456.5" y="-7" font-family="Helvetica,sans-Serif" font-size="10.00">is_hex_char</text>
</a>
</g>
</g>
<!-- Node29&#45;&gt;Node30 -->
<g id="edge36_Node000029_Node000030" class="edge">
<title>Node29&#45;&gt;Node30</title>
<g id="a_edge36_Node000029_Node000030"><a xlink:title=" ">
<path fill="none" stroke="#63b8ff" d="M376.02,-9.5C387.04,-9.5 398.43,-9.5 409.02,-9.5"/>
<polygon fill="#63b8ff" stroke="#63b8ff" points="409.3,-13 419.3,-9.5 409.3,-6 409.3,-13"/>
</a>
</g>
</g>
</g>
</svg>
