<?xml version="1.0" encoding="UTF-8" standalone="no"?>
<!DOCTYPE svg PUBLIC "-//W3C//DTD SVG 1.1//EN"
 "http://www.w3.org/Graphics/SVG/1.1/DTD/svg11.dtd">
<!-- Generated by graphviz version 2.43.0 (0)
 -->
<!-- Title: dotenv_reset Pages: 1 -->
<svg width="195pt" height="212pt"
 viewBox="0.00 0.00 195.00 212.00" xmlns="http://www.w3.org/2000/svg" xmlns:xlink="http://www.w3.org/1999/xlink">
<g id="graph0" class="graph" transform="scale(1 1) rotate(0) translate(4 208)">
<title>dotenv_reset</title>
<!-- Node1 -->
<g id="Node000001" class="node">
<title>Node1</title>
<g id="a_Node000001"><a xlink:title="Reset the internal entry table (for test isolation).">
<polygon fill="#999999" stroke="#666666" points="187,-111 107,-111 107,-92 187,-92 187,-111"/>
<text text-anchor="middle" x="147" y="-99" font-family="Helvetica,sans-Serif" font-size="10.00">dotenv_reset</text>
</a>
</g>
</g>
<!-- Node2 -->
<g id="Node000002" class="node">
<title>Node2</title>
<g id="a_Node000002"><a xlink:href="test__dotenv_8c.html#a48edbfce106e1b3ec82edc1b2d47e3c4" target="_top" xlink:title=" ">
<polygon fill="white" stroke="#666666" points="71,-204 0,-204 0,-185 71,-185 71,-204"/>
<text text-anchor="middle" x="35.5" y="-192" font-family="Helvetica,sans-Serif" font-size="10.00">TEST_CASE</text>
</a>
</g>
</g>
<!-- Node1&#45;&gt;Node2 -->
<g id="edge1_Node000001_Node000002" class="edge">
<title>Node1&#45;&gt;Node2</title>
<g id="a_edge1_Node000001_Node000002"><a xlink:title=" ">
<path fill="none" stroke="#63b8ff" d="M131.4,-118.9C117.14,-135.16 94.26,-159.43 71,-176.5 66.86,-179.54 62.14,-182.36 57.54,-184.82"/>
<polygon fill="#63b8ff" stroke="#63b8ff" points="134.15,-121.07 138.02,-111.2 128.84,-116.5 134.15,-121.07"/>
</a>
</g>
</g>
<!-- Node3 -->
<g id="Node000003" class="node">
<title>Node3</title>
<g id="a_Node000003"><a xlink:href="test__dotenv_8c.html#a3050f320352e49ed98b2c303d16d5da2" target="_top" xlink:title=" ">
<polygon fill="white" stroke="#666666" points="71,-167 0,-167 0,-148 71,-148 71,-167"/>
<text text-anchor="middle" x="35.5" y="-155" font-family="Helvetica,sans-Serif" font-size="10.00">TEST_CASE</text>
</a>
</g>
</g>
<!-- Node1&#45;&gt;Node3 -->
<g id="edge2_Node000001_Node000003" class="edge">
<title>Node1&#45;&gt;Node3</title>
<g id="a_edge2_Node000001_Node000003"><a xlink:title=" ">
<path fill="none" stroke="#63b8ff" d="M117.84,-115.9C98.21,-125.94 72.56,-139.06 55.35,-147.86"/>
<polygon fill="#63b8ff" stroke="#63b8ff" points="119.62,-118.92 126.93,-111.25 116.43,-112.69 119.62,-118.92"/>
</a>
</g>
</g>
<!-- Node4 -->
<g id="Node000004" class="node">
<title>Node4</title>
<g id="a_Node000004"><a xlink:href="test__dotenv_8c.html#a77b4c337ef4dd6309d3a3c8e666752eb" target="_top" xlink:title=" ">
<polygon fill="white" stroke="#666666" points="71,-130 0,-130 0,-111 71,-111 71,-130"/>
<text text-anchor="middle" x="35.5" y="-118" font-family="Helvetica,sans-Serif" font-size="10.00">TEST_CASE</text>
</a>
</g>
</g>
<!-- Node1&#45;&gt;Node4 -->
<g id="edge3_Node000001_Node000004" class="edge">
<title>Node1&#45;&gt;Node4</title>
<g id="a_edge3_Node000001_Node000004"><a xlink:title=" ">
<path fill="none" stroke="#63b8ff" d="M96.75,-110.05C88.09,-111.55 79.24,-113.08 71.09,-114.5"/>
<polygon fill="#63b8ff" stroke="#63b8ff" points="97.52,-113.46 106.78,-108.31 96.33,-106.57 97.52,-113.46"/>
</a>
</g>
</g>
<!-- Node5 -->
<g id="Node000005" class="node">
<title>Node5</title>
<g id="a_Node000005"><a xlink:href="test__dotenv_8c.html#a57499567e4e4e204b42e5fbc136099b4" target="_top" xlink:title=" ">
<polygon fill="white" stroke="#666666" points="71,-93 0,-93 0,-74 71,-74 71,-93"/>
<text text-anchor="middle" x="35.5" y="-81" font-family="Helvetica,sans-Serif" font-size="10.00">TEST_CASE</text>
</a>
</g>
</g>
<!-- Node1&#45;&gt;Node5 -->
<g id="edge4_Node000001_Node000005" class="edge">
<title>Node1&#45;&gt;Node5</title>
<g id="a_edge4_Node000001_Node000005"><a xlink:title=" ">
<path fill="none" stroke="#63b8ff" d="M96.75,-93.4C88.09,-91.98 79.24,-90.53 71.09,-89.19"/>
<polygon fill="#63b8ff" stroke="#63b8ff" points="96.34,-96.88 106.78,-95.05 97.48,-89.98 96.34,-96.88"/>
</a>
</g>
</g>
<!-- Node6 -->
<g id="Node000006" class="node">
<title>Node6</title>
<g id="a_Node000006"><a xlink:href="test__dotenv_8c.html#a146653ac83353c63774f047db009b14b" target="_top" xlink:title=" ">
<polygon fill="white" stroke="#666666" points="71,-56 0,-56 0,-37 71,-37 71,-56"/>
<text text-anchor="middle" x="35.5" y="-44" font-family="Helvetica,sans-Serif" font-size="10.00">TEST_CASE</text>
</a>
</g>
</g>
<!-- Node1&#45;&gt;Node6 -->
<g id="edge5_Node000001_Node000006" class="edge">
<title>Node1&#45;&gt;Node6</title>
<g id="a_edge5_Node000001_Node000006"><a xlink:title=" ">
<path fill="none" stroke="#63b8ff" d="M117.9,-87.38C98.4,-77.59 72.94,-64.8 55.72,-56.16"/>
<polygon fill="#63b8ff" stroke="#63b8ff" points="116.42,-90.56 126.93,-91.92 119.56,-84.3 116.42,-90.56"/>
</a>
</g>
</g>
<!-- Node7 -->
<g id="Node000007" class="node">
<title>Node7</title>
<g id="a_Node000007"><a xlink:href="test__dotenv_8c.html#a6f097fd3d7544c88c800f42f978ed310" target="_top" xlink:title=" ">
<polygon fill="white" stroke="#666666" points="71,-19 0,-19 0,0 71,0 71,-19"/>
<text text-anchor="middle" x="35.5" y="-7" font-family="Helvetica,sans-Serif" font-size="10.00">TEST_CASE</text>
</a>
</g>
</g>
<!-- Node1&#45;&gt;Node7 -->
<g id="edge6_Node000001_Node000007" class="edge">
<title>Node1&#45;&gt;Node7</title>
<g id="a_edge6_Node000001_Node000007"><a xlink:title=" ">
<path fill="none" stroke="#63b8ff" d="M130.75,-84.2C116.35,-68.49 93.63,-45.26 71,-28.5 66.38,-25.08 61.08,-21.86 56.04,-19.07"/>
<polygon fill="#63b8ff" stroke="#63b8ff" points="128.19,-86.58 137.48,-91.66 133.38,-81.89 128.19,-86.58"/>
</a>
</g>
</g>
</g>
</svg>
