<?xml version="1.0" encoding="UTF-8" standalone="no"?>
<!DOCTYPE svg PUBLIC "-//W3C//DTD SVG 1.1//EN"
 "http://www.w3.org/Graphics/SVG/1.1/DTD/svg11.dtd">
<!-- Generated by graphviz version 2.43.0 (0)
 -->
<!-- Title: dotenv_parse_line Pages: 1 -->
<svg width="221pt" height="138pt"
 viewBox="0.00 0.00 221.00 138.00" xmlns="http://www.w3.org/2000/svg" xmlns:xlink="http://www.w3.org/1999/xlink">
<g id="graph0" class="graph" transform="scale(1 1) rotate(0) translate(4 134)">
<title>dotenv_parse_line</title>
<!-- Node1 -->
<g id="Node000001" class="node">
<title>Node1</title>
<g id="a_Node000001"><a xlink:title=" ">
<polygon fill="#999999" stroke="#666666" points="213,-74 107,-74 107,-55 213,-55 213,-74"/>
<text text-anchor="middle" x="160" y="-62" font-family="Helvetica,sans-Serif" font-size="10.00">dotenv_parse_line</text>
</a>
</g>
</g>
<!-- Node2 -->
<g id="Node000002" class="node">
<title>Node2</title>
<g id="a_Node000002"><a xlink:href="test__dotenv_8c.html#a77b4c337ef4dd6309d3a3c8e666752eb" target="_top" xlink:title=" ">
<polygon fill="white" stroke="#666666" points="71,-130 0,-130 0,-111 71,-111 71,-130"/>
<text text-anchor="middle" x="35.5" y="-118" font-family="Helvetica,sans-Serif" font-size="10.00">TEST_CASE</text>
</a>
</g>
</g>
<!-- Node1&#45;&gt;Node2 -->
<g id="edge1_Node000001_Node000002" class="edge">
<title>Node1&#45;&gt;Node2</title>
<g id="a_edge1_Node000001_Node000002"><a xlink:title=" ">
<path fill="none" stroke="#63b8ff" d="M128.62,-78.39C106.4,-88.54 76.86,-102.05 57.28,-111"/>
<polygon fill="#63b8ff" stroke="#63b8ff" points="130.3,-81.47 137.94,-74.13 127.39,-75.1 130.3,-81.47"/>
</a>
</g>
</g>
<!-- Node3 -->
<g id="Node000003" class="node">
<title>Node3</title>
<g id="a_Node000003"><a xlink:href="test__dotenv_8c.html#a57499567e4e4e204b42e5fbc136099b4" target="_top" xlink:title=" ">
<polygon fill="white" stroke="#666666" points="71,-93 0,-93 0,-74 71,-74 71,-93"/>
<text text-anchor="middle" x="35.5" y="-81" font-family="Helvetica,sans-Serif" font-size="10.00">TEST_CASE</text>
</a>
</g>
</g>
<!-- Node1&#45;&gt;Node3 -->
<g id="edge2_Node000001_Node000003" class="edge">
<title>Node1&#45;&gt;Node3</title>
<g id="a_edge2_Node000001_Node000003"><a xlink:title=" ">
<path fill="none" stroke="#63b8ff" d="M96.53,-74.19C87.85,-75.54 79.2,-76.88 71.28,-78.11"/>
<polygon fill="#63b8ff" stroke="#63b8ff" points="97.35,-77.6 106.69,-72.61 96.28,-70.69 97.35,-77.6"/>
</a>
</g>
</g>
<!-- Node4 -->
<g id="Node000004" class="node">
<title>Node4</title>
<g id="a_Node000004"><a xlink:href="test__dotenv_8c.html#a146653ac83353c63774f047db009b14b" target="_top" xlink:title=" ">
<polygon fill="white" stroke="#666666" points="71,-56 0,-56 0,-37 71,-37 71,-56"/>
<text text-anchor="middle" x="35.5" y="-44" font-family="Helvetica,sans-Serif" font-size="10.00">TEST_CASE</text>
</a>
</g>
</g>
<!-- Node1&#45;&gt;Node4 -->
<g id="edge3_Node000001_Node000004" class="edge">
<title>Node1&#45;&gt;Node4</title>
<g id="a_edge3_Node000001_Node000004"><a xlink:title=" ">
<path fill="none" stroke="#63b8ff" d="M96.53,-55.32C87.85,-54.04 79.2,-52.77 71.28,-51.61"/>
<polygon fill="#63b8ff" stroke="#63b8ff" points="96.29,-58.82 106.69,-56.81 97.31,-51.9 96.29,-58.82"/>
</a>
</g>
</g>
<!-- Node5 -->
<g id="Node000005" class="node">
<title>Node5</title>
<g id="a_Node000005"><a xlink:href="test__dotenv_8c.html#a6f097fd3d7544c88c800f42f978ed310" target="_top" xlink:title=" ">
<polygon fill="white" stroke="#666666" points="71,-19 0,-19 0,0 71,0 71,-19"/>
<text text-anchor="middle" x="35.5" y="-7" font-family="Helvetica,sans-Serif" font-size="10.00">TEST_CASE</text>
</a>
</g>
</g>
<!-- Node1&#45;&gt;Node5 -->
<g id="edge4_Node000001_Node000005" class="edge">
<title>Node1&#45;&gt;Node5</title>
<g id="a_edge4_Node000001_Node000005"><a xlink:title=" ">
<path fill="none" stroke="#63b8ff" d="M128.45,-50.78C106.52,-40.94 77.52,-27.92 58,-19.16"/>
<polygon fill="#63b8ff" stroke="#63b8ff" points="127.11,-54.02 137.66,-54.92 129.97,-47.63 127.11,-54.02"/>
</a>
</g>
</g>
</g>
</svg>
