<?xml version="1.0" encoding="UTF-8" standalone="no"?>
<!DOCTYPE svg PUBLIC "-//W3C//DTD SVG 1.1//EN"
 "http://www.w3.org/Graphics/SVG/1.1/DTD/svg11.dtd">
<!-- Generated by graphviz version 2.43.0 (0)
 -->
<!-- Title: web_util.c Pages: 1 -->
<svg width="482pt" height="137pt"
 viewBox="0.00 0.00 482.00 137.00" xmlns="http://www.w3.org/2000/svg" xmlns:xlink="http://www.w3.org/1999/xlink">
<g id="graph0" class="graph" transform="scale(1 1) rotate(0) translate(4 133)">
<title>web_util.c</title>
<!-- Node1 -->
<g id="Node000001" class="node">
<title>Node1</title>
<g id="a_Node000001"><a xlink:title="HTTPS server lifecycle — implementation.">
<polygon fill="#999999" stroke="#666666" points="210.5,-129 144.5,-129 144.5,-110 210.5,-110 210.5,-129"/>
<text text-anchor="middle" x="177.5" y="-117" font-family="Helvetica,sans-Serif" font-size="10.00">web_util.c</text>
</a>
</g>
</g>
<!-- Node2 -->
<g id="Node000002" class="node">
<title>Node2</title>
<g id="a_Node000002"><a xlink:href="web__util_8h.html" target="_top" xlink:title="HTTP server lifecycle — init, start, health check, stop.">
<polygon fill="white" stroke="#666666" points="67,-74 0,-74 0,-55 67,-55 67,-74"/>
<text text-anchor="middle" x="33.5" y="-62" font-family="Helvetica,sans-Serif" font-size="10.00">web_util.h</text>
</a>
</g>
</g>
<!-- Node1&#45;&gt;Node2 -->
<g id="edge1_Node000001_Node000002" class="edge">
<title>Node1&#45;&gt;Node2</title>
<g id="a_edge1_Node000001_Node000002"><a xlink:title=" ">
<path fill="none" stroke="#63b8ff" d="M154.36,-109.98C130.68,-101.27 93.63,-87.63 66.79,-77.75"/>
<polygon fill="#63b8ff" stroke="#63b8ff" points="67.65,-74.34 57.06,-74.17 65.23,-80.91 67.65,-74.34"/>
</a>
</g>
</g>
<!-- Node3 -->
<g id="Node000003" class="node">
<title>Node3</title>
<g id="a_Node000003"><a xlink:title=" ">
<polygon fill="#e0e0e0" stroke="#999999" points="95,-19 34,-19 34,0 95,0 95,-19"/>
<text text-anchor="middle" x="64.5" y="-7" font-family="Helvetica,sans-Serif" font-size="10.00">esp_err.h</text>
</a>
</g>
</g>
<!-- Node1&#45;&gt;Node3 -->
<g id="edge3_Node000001_Node000003" class="edge">
<title>Node1&#45;&gt;Node3</title>
<g id="a_edge3_Node000001_Node000003"><a xlink:title=" ">
<path fill="none" stroke="#63b8ff" d="M162.85,-109.86C149.47,-101.59 129.55,-88.29 114.5,-74 99.62,-59.87 85.42,-41.16 75.98,-27.72"/>
<polygon fill="#63b8ff" stroke="#63b8ff" points="78.8,-25.64 70.26,-19.37 73.03,-29.6 78.8,-25.64"/>
</a>
</g>
</g>
<!-- Node4 -->
<g id="Node000004" class="node">
<title>Node4</title>
<g id="a_Node000004"><a xlink:title=" ">
<polygon fill="#e0e0e0" stroke="#999999" points="231.5,-74 123.5,-74 123.5,-55 231.5,-55 231.5,-74"/>
<text text-anchor="middle" x="177.5" y="-62" font-family="Helvetica,sans-Serif" font-size="10.00">esp_https_server.h</text>
</a>
</g>
</g>
<!-- Node1&#45;&gt;Node4 -->
<g id="edge4_Node000001_Node000004" class="edge">
<title>Node1&#45;&gt;Node4</title>
<g id="a_edge4_Node000001_Node000004"><a xlink:title=" ">
<path fill="none" stroke="#63b8ff" d="M177.5,-109.75C177.5,-102.8 177.5,-92.85 177.5,-84.13"/>
<polygon fill="#63b8ff" stroke="#63b8ff" points="181,-84.09 177.5,-74.09 174,-84.09 181,-84.09"/>
</a>
</g>
</g>
<!-- Node5 -->
<g id="Node000005" class="node">
<title>Node5</title>
<g id="a_Node000005"><a xlink:title=" ">
<polygon fill="#e0e0e0" stroke="#999999" points="313,-74 250,-74 250,-55 313,-55 313,-74"/>
<text text-anchor="middle" x="281.5" y="-62" font-family="Helvetica,sans-Serif" font-size="10.00">esp_log.h</text>
</a>
</g>
</g>
<!-- Node1&#45;&gt;Node5 -->
<g id="edge5_Node000001_Node000005" class="edge">
<title>Node1&#45;&gt;Node5</title>
<g id="a_edge5_Node000001_Node000005"><a xlink:title=" ">
<path fill="none" stroke="#63b8ff" d="M194.21,-109.98C210.71,-101.57 236.2,-88.59 255.38,-78.81"/>
<polygon fill="#63b8ff" stroke="#63b8ff" points="257.17,-81.83 264.49,-74.17 253.99,-75.59 257.17,-81.83"/>
</a>
</g>
</g>
<!-- Node6 -->
<g id="Node000006" class="node">
<title>Node6</title>
<g id="a_Node000006"><a xlink:href="web___a_p_i_8h.html" target="_top" xlink:title="HTTP endpoint registration — static files, /api/status, /api/wol.">
<polygon fill="white" stroke="#666666" points="398,-74 331,-74 331,-55 398,-55 398,-74"/>
<text text-anchor="middle" x="364.5" y="-62" font-family="Helvetica,sans-Serif" font-size="10.00">web_API.h</text>
</a>
</g>
</g>
<!-- Node1&#45;&gt;Node6 -->
<g id="edge6_Node000001_Node000006" class="edge">
<title>Node1&#45;&gt;Node6</title>
<g id="a_edge6_Node000001_Node000006"><a xlink:title=" ">
<path fill="none" stroke="#63b8ff" d="M207.54,-109.98C239.21,-101.01 289.27,-86.82 324.31,-76.89"/>
<polygon fill="#63b8ff" stroke="#63b8ff" points="325.55,-80.18 334.22,-74.08 323.64,-73.44 325.55,-80.18"/>
</a>
</g>
</g>
<!-- Node2&#45;&gt;Node3 -->
<g id="edge2_Node000002_Node000003" class="edge">
<title>Node2&#45;&gt;Node3</title>
<g id="a_edge2_Node000002_Node000003"><a xlink:title=" ">
<path fill="none" stroke="#63b8ff" d="M38.62,-54.75C42.86,-47.49 49.03,-36.95 54.28,-27.98"/>
<polygon fill="#63b8ff" stroke="#63b8ff" points="57.45,-29.49 59.48,-19.09 51.41,-25.95 57.45,-29.49"/>
</a>
</g>
</g>
<!-- Node7 -->
<g id="Node000007" class="node">
<title>Node7</title>
<g id="a_Node000007"><a xlink:title=" ">
<polygon fill="#e0e0e0" stroke="#999999" points="352.5,-19 260.5,-19 260.5,0 352.5,0 352.5,-19"/>
<text text-anchor="middle" x="306.5" y="-7" font-family="Helvetica,sans-Serif" font-size="10.00">esp_chip_info.h</text>
</a>
</g>
</g>
<!-- Node6&#45;&gt;Node7 -->
<g id="edge7_Node000006_Node000007" class="edge">
<title>Node6&#45;&gt;Node7</title>
<g id="a_edge7_Node000006_Node000007"><a xlink:title=" ">
<path fill="none" stroke="#63b8ff" d="M355.18,-54.98C346.69,-47.23 333.94,-35.58 323.62,-26.14"/>
<polygon fill="#63b8ff" stroke="#63b8ff" points="325.73,-23.33 315.99,-19.17 321.01,-28.5 325.73,-23.33"/>
</a>
</g>
</g>
<!-- Node8 -->
<g id="Node000008" class="node">
<title>Node8</title>
<g id="a_Node000008"><a xlink:title=" ">
<polygon fill="#e0e0e0" stroke="#999999" points="474,-19 371,-19 371,0 474,0 474,-19"/>
<text text-anchor="middle" x="422.5" y="-7" font-family="Helvetica,sans-Serif" font-size="10.00">esp_http_server.h</text>
</a>
</g>
</g>
<!-- Node6&#45;&gt;Node8 -->
<g id="edge8_Node000006_Node000008" class="edge">
<title>Node6&#45;&gt;Node8</title>
<g id="a_edge8_Node000006_Node000008"><a xlink:title=" ">
<path fill="none" stroke="#63b8ff" d="M373.82,-54.98C382.31,-47.23 395.06,-35.58 405.38,-26.14"/>
<polygon fill="#63b8ff" stroke="#63b8ff" points="407.99,-28.5 413.01,-19.17 403.27,-23.33 407.99,-28.5"/>
</a>
</g>
</g>
</g>
</svg>
