<?xml version="1.0" encoding="UTF-8" standalone="no"?>
<!DOCTYPE svg PUBLIC "-//W3C//DTD SVG 1.1//EN"
 "http://www.w3.org/Graphics/SVG/1.1/DTD/svg11.dtd">
<!-- Generated by graphviz version 2.43.0 (0)
 -->
<!-- Title: web_start Pages: 1 -->
<svg width="584pt" height="214pt"
 viewBox="0.00 0.00 584.00 214.00" xmlns="http://www.w3.org/2000/svg" xmlns:xlink="http://www.w3.org/1999/xlink">
<g id="graph0" class="graph" transform="scale(1 1) rotate(0) translate(4 210)">
<title>web_start</title>
<!-- Node1 -->
<g id="Node000001" class="node">
<title>Node1</title>
<g id="a_Node000001"><a xlink:title="Start the HTTPS server and register all URI handlers.">
<polygon fill="#999999" stroke="#666666" points="65,-159 0,-159 0,-140 65,-140 65,-159"/>
<text text-anchor="middle" x="32.5" y="-147" font-family="Helvetica,sans-Serif" font-size="10.00">web_start</text>
</a>
</g>
</g>
<!-- Node2 -->
<g id="Node000002" class="node">
<title>Node2</title>
<g id="a_Node000002"><a xlink:href="web___a_p_i_8c.html#a96795f15e1c7bfe5b1eac458acb683d3" target="_top" xlink:title="Register all URI handlers.">
<polygon fill="white" stroke="#666666" points="180,-159 101,-159 101,-140 180,-140 180,-159"/>
<text text-anchor="middle" x="140.5" y="-147" font-family="Helvetica,sans-Serif" font-size="10.00">web_API_init</text>
</a>
</g>
</g>
<!-- Node1&#45;&gt;Node2 -->
<g id="edge1_Node000001_Node000002" class="edge">
<title>Node1&#45;&gt;Node2</title>
<g id="a_edge1_Node000001_Node000002"><a xlink:title=" ">
<path fill="none" stroke="#63b8ff" d="M65.02,-149.5C73.09,-149.5 81.96,-149.5 90.68,-149.5"/>
<polygon fill="#63b8ff" stroke="#63b8ff" points="90.79,-153 100.79,-149.5 90.79,-146 90.79,-153"/>
</a>
</g>
</g>
<!-- Node3 -->
<g id="Node000003" class="node">
<title>Node3</title>
<g id="a_Node000003"><a xlink:href="web___a_p_i_8c.html#a265fec6f90a423c909c5b5af196310ca" target="_top" xlink:title="Serve an embedded static file matched by request URI.">
<polygon fill="white" stroke="#666666" points="303.5,-196 217.5,-196 217.5,-177 303.5,-177 303.5,-196"/>
<text text-anchor="middle" x="260.5" y="-184" font-family="Helvetica,sans-Serif" font-size="10.00">static_handler</text>
</a>
</g>
</g>
<!-- Node2&#45;&gt;Node3 -->
<g id="edge2_Node000002_Node000003" class="edge">
<title>Node2&#45;&gt;Node3</title>
<g id="a_edge2_Node000002_Node000003"><a xlink:title=" ">
<path fill="none" stroke="#63b8ff" d="M171.89,-159.03C186.23,-163.52 203.54,-168.95 218.98,-173.8"/>
<polygon fill="#63b8ff" stroke="#63b8ff" points="218.22,-177.22 228.8,-176.88 220.31,-170.54 218.22,-177.22"/>
</a>
</g>
</g>
<!-- Node4 -->
<g id="Node000004" class="node">
<title>Node4</title>
<g id="a_Node000004"><a xlink:href="web___a_p_i_8c.html#adc7b4f6e2978a7866fa572b720f94d61" target="_top" xlink:title="Build and send a /api/status JSON response.">
<polygon fill="white" stroke="#666666" points="305,-113 216,-113 216,-94 305,-94 305,-113"/>
<text text-anchor="middle" x="260.5" y="-101" font-family="Helvetica,sans-Serif" font-size="10.00">status_handler</text>
</a>
</g>
</g>
<!-- Node2&#45;&gt;Node4 -->
<g id="edge3_Node000002_Node000004" class="edge">
<title>Node2&#45;&gt;Node4</title>
<g id="a_edge3_Node000002_Node000004"><a xlink:title=" ">
<path fill="none" stroke="#63b8ff" d="M165.95,-139.97C183.2,-133.25 206.52,-124.15 225.57,-116.73"/>
<polygon fill="#63b8ff" stroke="#63b8ff" points="227.04,-119.91 235.08,-113.02 224.49,-113.39 227.04,-119.91"/>
</a>
</g>
</g>
<!-- Node11 -->
<g id="Node000011" class="node">
<title>Node11</title>
<g id="a_Node000011"><a xlink:href="web___a_p_i_8c.html#a10bce792fd3c3117bc79da4a54e28370" target="_top" xlink:title="Trigger a WoL send and return JSON status.">
<polygon fill="white" stroke="#666666" points="298.5,-159 222.5,-159 222.5,-140 298.5,-140 298.5,-159"/>
<text text-anchor="middle" x="260.5" y="-147" font-family="Helvetica,sans-Serif" font-size="10.00">wol_handler</text>
</a>
</g>
</g>
<!-- Node2&#45;&gt;Node11 -->
<g id="edge11_Node000002_Node000011" class="edge">
<title>Node2&#45;&gt;Node11</title>
<g id="a_edge11_Node000002_Node000011"><a xlink:title=" ">
<path fill="none" stroke="#63b8ff" d="M180.14,-149.5C190.43,-149.5 201.66,-149.5 212.35,-149.5"/>
<polygon fill="#63b8ff" stroke="#63b8ff" points="212.38,-153 222.38,-149.5 212.38,-146 212.38,-153"/>
</a>
</g>
</g>
<!-- Node5 -->
<g id="Node000005" class="node">
<title>Node5</title>
<g id="a_Node000005"><a xlink:href="web___a_p_i_8c.html#a2b6882c122937423d51dd4fc88591f76" target="_top" xlink:title="Validate X&#45;API&#45;Key via constant&#45;time compare and reject on failure.">
<polygon fill="white" stroke="#666666" points="458.5,-169 351.5,-169 351.5,-150 458.5,-150 458.5,-169"/>
<text text-anchor="middle" x="405" y="-157" font-family="Helvetica,sans-Serif" font-size="10.00">api_auth_or_reject</text>
</a>
</g>
</g>
<!-- Node4&#45;&gt;Node5 -->
<g id="edge4_Node000004_Node000005" class="edge">
<title>Node4&#45;&gt;Node5</title>
<g id="a_edge4_Node000004_Node000005"><a xlink:title=" ">
<path fill="none" stroke="#63b8ff" d="M279.44,-113.14C295.31,-121.41 319.26,-133.26 341,-141.5 346.12,-143.44 351.54,-145.29 356.97,-147.01"/>
<polygon fill="#63b8ff" stroke="#63b8ff" points="356.1,-150.4 366.68,-149.96 358.13,-143.7 356.1,-150.4"/>
</a>
</g>
</g>
<!-- Node7 -->
<g id="Node000007" class="node">
<title>Node7</title>
<g id="a_Node000007"><a xlink:href="web___a_p_i_8c.html#ad930ad5328debdce3e3ac83ae3c0dc81" target="_top" xlink:title="Map esp_chip_model_t enum to a human&#45;readable string.">
<polygon fill="white" stroke="#666666" points="450.5,-95 359.5,-95 359.5,-76 450.5,-76 450.5,-95"/>
<text text-anchor="middle" x="405" y="-83" font-family="Helvetica,sans-Serif" font-size="10.00">chip_model_str</text>
</a>
</g>
</g>
<!-- Node4&#45;&gt;Node7 -->
<g id="edge6_Node000004_Node000007" class="edge">
<title>Node4&#45;&gt;Node7</title>
<g id="a_edge6_Node000004_Node000007"><a xlink:title=" ">
<path fill="none" stroke="#63b8ff" d="M305.03,-98C318.99,-96.24 334.64,-94.26 349.3,-92.41"/>
<polygon fill="#63b8ff" stroke="#63b8ff" points="349.78,-95.88 359.26,-91.15 348.9,-88.93 349.78,-95.88"/>
</a>
</g>
</g>
<!-- Node8 -->
<g id="Node000008" class="node">
<title>Node8</title>
<g id="a_Node000008"><a xlink:href="wifi__connect_8c.html#a64941b79700fa76bbb2ae3f6e1cc0421" target="_top" xlink:title="Non&#45;blocking IP getter.">
<polygon fill="white" stroke="#666666" points="441,-19 369,-19 369,0 441,0 441,-19"/>
<text text-anchor="middle" x="405" y="-7" font-family="Helvetica,sans-Serif" font-size="10.00">get_LAN_ip</text>
</a>
</g>
</g>
<!-- Node4&#45;&gt;Node8 -->
<g id="edge7_Node000004_Node000008" class="edge">
<title>Node4&#45;&gt;Node8</title>
<g id="a_edge7_Node000004_Node000008"><a xlink:title=" ">
<path fill="none" stroke="#63b8ff" d="M270.4,-93.67C284.25,-78.88 312.34,-50.79 341,-33.5 347.76,-29.42 355.34,-25.82 362.83,-22.73"/>
<polygon fill="#63b8ff" stroke="#63b8ff" points="364.15,-25.98 372.21,-19.1 361.62,-19.45 364.15,-25.98"/>
</a>
</g>
</g>
<!-- Node9 -->
<g id="Node000009" class="node">
<title>Node9</title>
<g id="a_Node000009"><a xlink:href="wifi__connect_8c.html#aa04cb005500914912c8d6644e53cd9a8" target="_top" xlink:title="Check whether the station is connected and has an IP.">
<polygon fill="white" stroke="#666666" points="575.5,-38 505.5,-38 505.5,-19 575.5,-19 575.5,-38"/>
<text text-anchor="middle" x="540.5" y="-26" font-family="Helvetica,sans-Serif" font-size="10.00">wifi_health</text>
</a>
</g>
</g>
<!-- Node4&#45;&gt;Node9 -->
<g id="edge10_Node000004_Node000009" class="edge">
<title>Node4&#45;&gt;Node9</title>
<g id="a_edge10_Node000004_Node000009"><a xlink:title=" ">
<path fill="none" stroke="#63b8ff" d="M279.34,-93.98C295.15,-85.89 319.07,-74.52 341,-67.5 392.7,-50.96 454.32,-40.18 495.04,-34.23"/>
<polygon fill="#63b8ff" stroke="#63b8ff" points="495.77,-37.66 505.18,-32.78 494.79,-30.73 495.77,-37.66"/>
</a>
</g>
</g>
<!-- Node10 -->
<g id="Node000010" class="node">
<title>Node10</title>
<g id="a_Node000010"><a xlink:href="web___a_p_i_8c.html#a564c55211d6c33d4e62a94589eca34bf" target="_top" xlink:title="Enforce low&#45;memory request rejection to protect heap stability.">
<polygon fill="white" stroke="#666666" points="469,-132 341,-132 341,-113 469,-113 469,-132"/>
<text text-anchor="middle" x="405" y="-120" font-family="Helvetica,sans-Serif" font-size="10.00">heap_is_safe_or_reject</text>
</a>
</g>
</g>
<!-- Node4&#45;&gt;Node10 -->
<g id="edge9_Node000004_Node000010" class="edge">
<title>Node4&#45;&gt;Node10</title>
<g id="a_edge9_Node000004_Node000010"><a xlink:title=" ">
<path fill="none" stroke="#63b8ff" d="M305.03,-109.3C313.24,-110.4 322.02,-111.57 330.85,-112.75"/>
<polygon fill="#63b8ff" stroke="#63b8ff" points="330.43,-116.22 340.8,-114.07 331.35,-109.28 330.43,-116.22"/>
</a>
</g>
</g>
<!-- Node6 -->
<g id="Node000006" class="node">
<title>Node6</title>
<g id="a_Node000006"><a xlink:href="dotenv_8c.html#ae2c9e61eb3a2787ac6ebec1c9041986a" target="_top" xlink:title="Retrieve a string value by key.">
<polygon fill="white" stroke="#666666" points="576,-169 505,-169 505,-150 576,-150 576,-169"/>
<text text-anchor="middle" x="540.5" y="-157" font-family="Helvetica,sans-Serif" font-size="10.00">dotenv_get</text>
</a>
</g>
</g>
<!-- Node5&#45;&gt;Node6 -->
<g id="edge5_Node000005_Node000006" class="edge">
<title>Node5&#45;&gt;Node6</title>
<g id="a_edge5_Node000005_Node000006"><a xlink:title=" ">
<path fill="none" stroke="#63b8ff" d="M458.76,-159.5C470.59,-159.5 483.04,-159.5 494.51,-159.5"/>
<polygon fill="#63b8ff" stroke="#63b8ff" points="494.74,-163 504.74,-159.5 494.74,-156 494.74,-163"/>
</a>
</g>
</g>
<!-- Node8&#45;&gt;Node9 -->
<g id="edge8_Node000008_Node000009" class="edge">
<title>Node8&#45;&gt;Node9</title>
<g id="a_edge8_Node000008_Node000009"><a xlink:title=" ">
<path fill="none" stroke="#63b8ff" d="M441.08,-14.49C457.61,-16.84 477.51,-19.68 495.09,-22.18"/>
<polygon fill="#63b8ff" stroke="#63b8ff" points="494.73,-25.66 505.12,-23.61 495.71,-18.73 494.73,-25.66"/>
</a>
</g>
</g>
<!-- Node11&#45;&gt;Node5 -->
<g id="edge12_Node000011_Node000005" class="edge">
<title>Node11&#45;&gt;Node5</title>
<g id="a_edge12_Node000011_Node000005"><a xlink:title=" ">
<path fill="none" stroke="#63b8ff" d="M298.57,-152.1C311.63,-153.02 326.71,-154.08 341.3,-155.1"/>
<polygon fill="#63b8ff" stroke="#63b8ff" points="341.07,-158.59 351.29,-155.8 341.56,-151.61 341.07,-158.59"/>
</a>
</g>
</g>
<!-- Node11&#45;&gt;Node10 -->
<g id="edge13_Node000011_Node000010" class="edge">
<title>Node11&#45;&gt;Node10</title>
<g id="a_edge13_Node000011_Node000010"><a xlink:title=" ">
<path fill="none" stroke="#63b8ff" d="M298.57,-142.48C312.37,-139.86 328.41,-136.82 343.75,-133.91"/>
<polygon fill="#63b8ff" stroke="#63b8ff" points="344.53,-137.33 353.71,-132.03 343.23,-130.45 344.53,-137.33"/>
</a>
</g>
</g>
<!-- Node12 -->
<g id="Node000012" class="node">
<title>Node12</title>
<g id="a_Node000012"><a xlink:href="wol_8c.html#a2d0697ed6102c1b1482f3696551d797c" target="_top" xlink:title="Send a Wake&#45;on&#45;LAN magic packet over UDP broadcast.">
<polygon fill="white" stroke="#666666" points="436,-206 374,-206 374,-187 436,-187 436,-206"/>
<text text-anchor="middle" x="405" y="-194" font-family="Helvetica,sans-Serif" font-size="10.00">wol_send</text>
</a>
</g>
</g>
<!-- Node11&#45;&gt;Node12 -->
<g id="edge14_Node000011_Node000012" class="edge">
<title>Node11&#45;&gt;Node12</title>
<g id="a_edge14_Node000011_Node000012"><a xlink:title=" ">
<path fill="none" stroke="#63b8ff" d="M286.4,-159.1C302,-164.99 322.56,-172.51 341,-178.5 348.37,-180.89 356.28,-183.29 363.92,-185.52"/>
<polygon fill="#63b8ff" stroke="#63b8ff" points="363.17,-188.94 373.74,-188.33 365.1,-182.21 363.17,-188.94"/>
</a>
</g>
</g>
</g>
</svg>
