<?xml version="1.0" encoding="UTF-8" standalone="no"?>
<!DOCTYPE svg PUBLIC "-//W3C//DTD SVG 1.1//EN"
 "http://www.w3.org/Graphics/SVG/1.1/DTD/svg11.dtd">
<!-- Generated by graphviz version 2.43.0 (0)
 -->
<!-- Title: wifi_connect.c Pages: 1 -->
<!--zoomable 137 -->

<svg id="main" version="1.1" xmlns="http://www.w3.org/2000/svg" xmlns:xlink="http://www.w3.org/1999/xlink" xml:space="preserve" onload="init(evt)">
<style type="text/css"><![CDATA[
.node, .edge {opacity: 0.7;}
.node.selected, .edge.selected {opacity: 1;}
.edge:hover path { stroke: red; }
.edge:hover polygon { stroke: red; fill: red; }
]]></style>

<defs>
  <circle id="rim" cx="0" cy="0" r="7"/>
  <circle id="rim2" cx="0" cy="0" r="3.5"/>
  <g id="zoomPlus">
    <use xlink:href="#rim" fill="#404040"><set attributeName="fill" to="#808080" begin="zoomplus.mouseover" end="zoomplus.mouseout"/></use>
    <path d="M-4,0h8M0,-4v8" fill="none" stroke="white" stroke-width="1.5" pointer-events="none"/>
  </g>
  <g id="zoomMin">
    <use xlink:href="#rim" fill="#404040"><set attributeName="fill" to="#808080" begin="zoomminus.mouseover" end="zoomminus.mouseout"/></use>
    <path d="M-4,0h8" fill="none" stroke="white" stroke-width="1.5" pointer-events="none"/>
  </g>
  <g id="arrowUp" transform="translate(30 24)">
    <use xlink:href="#rim"/>
    <path pointer-events="none" fill="none" stroke="white" stroke-width="1.5" d="M0,-3.0v7 M-2.5,-0.5L0,-3.0L2.5,-0.5"/>
  </g>
  <g id="arrowRight" transform="rotate(90) translate(36 -43)">
    <use xlink:href="#rim"/>
    <path pointer-events="none" fill="none" stroke="white" stroke-width="1.5" d="M0,-3.0v7 M-2.5,-0.5L0,-3.0L2.5,-0.5"/>
  </g>
  <g id="arrowDown" transform="rotate(180) translate(-30 -48)">
    <use xlink:href="#rim"/>
    <path pointer-events="none" fill="none" stroke="white" stroke-width="1.5" d="M0,-3.0v7 M-2.5,-0.5L0,-3.0L2.5,-0.5"/>
  </g>
  <g id="arrowLeft" transform="rotate(270) translate(-36 17)">
    <use xlink:href="#rim"/>
    <path pointer-events="none" fill="none" stroke="white" stroke-width="1.5" d="M0,-3.0v7 M-2.5,-0.5L0,-3.0L2.5,-0.5"/>
  </g>
  <g id="resetDef">
    <use xlink:href="#rim2" fill="#404040"><set attributeName="fill" to="#808080" begin="reset.mouseover" end="reset.mouseout"/></use>
  </g>
</defs>
<script type="application/ecmascript">
var viewWidth = 953;
var viewHeight = 137;
var sectionId = 'dynsection-0';
</script>
<script type="application/ecmascript" xlink:href="svg.min.js"/>
<svg id="graph" class="graph">
<g id="viewport">
<title>wifi_connect.c</title>
<!-- Node1 -->
<g id="Node000001" class="node">
<title>Node1</title>
<g id="a_Node000001"><a xlink:title="Wi&#45;Fi station lifecycle — implementation.">
<polygon fill="#999999" stroke="#666666" points="455,-129 369,-129 369,-110 455,-110 455,-129"/>
<text text-anchor="middle" x="412" y="-117" font-family="Helvetica,sans-Serif" font-size="10.00">wifi_connect.c</text>
</a>
</g>
</g>
<!-- Node2 -->
<g id="Node000002" class="node">
<title>Node2</title>
<g id="a_Node000002"><a xlink:href="wifi__connect_8h.html" target="_top" xlink:title="Wi&#45;Fi station lifecycle: init, connect, disconnect, health check, retry, and IP retrieval.">
<polygon fill="white" stroke="#666666" points="86,-74 0,-74 0,-55 86,-55 86,-74"/>
<text text-anchor="middle" x="43" y="-62" font-family="Helvetica,sans-Serif" font-size="10.00">wifi_connect.h</text>
</a>
</g>
</g>
<!-- Node1&#45;&gt;Node2 -->
<g id="edge1_Node000001_Node000002" class="edge">
<title>Node1&#45;&gt;Node2</title>
<g id="a_edge1_Node000001_Node000002"><a xlink:title=" ">
<path fill="none" stroke="#63b8ff" d="M368.89,-112.76C309.76,-104.82 199.94,-89.83 96.14,-74.14"/>
<polygon fill="#63b8ff" stroke="#63b8ff" points="96.53,-70.66 86.12,-72.63 95.48,-77.58 96.53,-70.66"/>
</a>
</g>
</g>
<!-- Node4 -->
<g id="Node000004" class="node">
<title>Node4</title>
<g id="a_Node000004"><a xlink:title=" ">
<polygon fill="#e0e0e0" stroke="#999999" points="154,-74 104,-74 104,-55 154,-55 154,-74"/>
<text text-anchor="middle" x="129" y="-62" font-family="Helvetica,sans-Serif" font-size="10.00">stdio.h</text>
</a>
</g>
</g>
<!-- Node1&#45;&gt;Node4 -->
<g id="edge3_Node000001_Node000004" class="edge">
<title>Node1&#45;&gt;Node4</title>
<g id="a_edge3_Node000001_Node000004"><a xlink:title=" ">
<path fill="none" stroke="#63b8ff" d="M368.84,-111.57C319.24,-103.42 235.48,-89.08 164,-74 163.9,-73.98 163.8,-73.96 163.7,-73.94"/>
<polygon fill="#63b8ff" stroke="#63b8ff" points="164.72,-70.58 154.19,-71.81 163.19,-77.41 164.72,-70.58"/>
</a>
</g>
</g>
<!-- Node5 -->
<g id="Node000005" class="node">
<title>Node5</title>
<g id="a_Node000005"><a xlink:title=" ">
<polygon fill="#e0e0e0" stroke="#999999" points="225.5,-74 172.5,-74 172.5,-55 225.5,-55 225.5,-74"/>
<text text-anchor="middle" x="199" y="-62" font-family="Helvetica,sans-Serif" font-size="10.00">string.h</text>
</a>
</g>
</g>
<!-- Node1&#45;&gt;Node5 -->
<g id="edge4_Node000001_Node000005" class="edge">
<title>Node1&#45;&gt;Node5</title>
<g id="a_edge4_Node000001_Node000005"><a xlink:title=" ">
<path fill="none" stroke="#63b8ff" d="M377.78,-109.98C338.83,-100.29 275.47,-84.53 235.57,-74.6"/>
<polygon fill="#63b8ff" stroke="#63b8ff" points="236.27,-71.17 225.72,-72.15 234.58,-77.96 236.27,-71.17"/>
</a>
</g>
</g>
<!-- Node6 -->
<g id="Node000006" class="node">
<title>Node6</title>
<g id="a_Node000006"><a xlink:title=" ">
<polygon fill="#e0e0e0" stroke="#999999" points="320,-74 244,-74 244,-55 320,-55 320,-74"/>
<text text-anchor="middle" x="282" y="-62" font-family="Helvetica,sans-Serif" font-size="10.00">esp_event.h</text>
</a>
</g>
</g>
<!-- Node1&#45;&gt;Node6 -->
<g id="edge5_Node000001_Node000006" class="edge">
<title>Node1&#45;&gt;Node6</title>
<g id="a_edge5_Node000001_Node000006"><a xlink:title=" ">
<path fill="none" stroke="#63b8ff" d="M391.11,-109.98C369.92,-101.34 336.87,-87.87 312.7,-78.02"/>
<polygon fill="#63b8ff" stroke="#63b8ff" points="313.85,-74.7 303.27,-74.17 311.21,-81.19 313.85,-74.7"/>
</a>
</g>
</g>
<!-- Node7 -->
<g id="Node000007" class="node">
<title>Node7</title>
<g id="a_Node000007"><a xlink:title=" ">
<polygon fill="#e0e0e0" stroke="#999999" points="401.5,-74 338.5,-74 338.5,-55 401.5,-55 401.5,-74"/>
<text text-anchor="middle" x="370" y="-62" font-family="Helvetica,sans-Serif" font-size="10.00">esp_log.h</text>
</a>
</g>
</g>
<!-- Node1&#45;&gt;Node7 -->
<g id="edge6_Node000001_Node000007" class="edge">
<title>Node1&#45;&gt;Node7</title>
<g id="a_edge6_Node000001_Node000007"><a xlink:title=" ">
<path fill="none" stroke="#63b8ff" d="M405.06,-109.75C399.13,-102.26 390.43,-91.28 383.18,-82.13"/>
<polygon fill="#63b8ff" stroke="#63b8ff" points="385.76,-79.75 376.81,-74.09 380.27,-84.1 385.76,-79.75"/>
</a>
</g>
</g>
<!-- Node8 -->
<g id="Node000008" class="node">
<title>Node8</title>
<g id="a_Node000008"><a xlink:title=" ">
<polygon fill="#e0e0e0" stroke="#999999" points="490,-74 420,-74 420,-55 490,-55 490,-74"/>
<text text-anchor="middle" x="455" y="-62" font-family="Helvetica,sans-Serif" font-size="10.00">esp_netif.h</text>
</a>
</g>
</g>
<!-- Node1&#45;&gt;Node8 -->
<g id="edge7_Node000001_Node000008" class="edge">
<title>Node1&#45;&gt;Node8</title>
<g id="a_edge7_Node000001_Node000008"><a xlink:title=" ">
<path fill="none" stroke="#63b8ff" d="M419.1,-109.75C425.17,-102.26 434.09,-91.28 441.51,-82.13"/>
<polygon fill="#63b8ff" stroke="#63b8ff" points="444.45,-84.06 448.03,-74.09 439.01,-79.65 444.45,-84.06"/>
</a>
</g>
</g>
<!-- Node9 -->
<g id="Node000009" class="node">
<title>Node9</title>
<g id="a_Node000009"><a xlink:title=" ">
<polygon fill="#e0e0e0" stroke="#999999" points="573.5,-74 508.5,-74 508.5,-55 573.5,-55 573.5,-74"/>
<text text-anchor="middle" x="541" y="-62" font-family="Helvetica,sans-Serif" font-size="10.00">esp_wifi.h</text>
</a>
</g>
</g>
<!-- Node1&#45;&gt;Node9 -->
<g id="edge8_Node000001_Node000009" class="edge">
<title>Node1&#45;&gt;Node9</title>
<g id="a_edge8_Node000001_Node000009"><a xlink:title=" ">
<path fill="none" stroke="#63b8ff" d="M432.73,-109.98C453.76,-101.34 486.55,-87.87 510.54,-78.02"/>
<polygon fill="#63b8ff" stroke="#63b8ff" points="511.98,-81.21 519.9,-74.17 509.32,-74.73 511.98,-81.21"/>
</a>
</g>
</g>
<!-- Node10 -->
<g id="Node000010" class="node">
<title>Node10</title>
<g id="a_Node000010"><a xlink:title=" ">
<polygon fill="#e0e0e0" stroke="#999999" points="704.5,-74 591.5,-74 591.5,-55 704.5,-55 704.5,-74"/>
<text text-anchor="middle" x="648" y="-62" font-family="Helvetica,sans-Serif" font-size="10.00">freertos/FreeRTOS.h</text>
</a>
</g>
</g>
<!-- Node1&#45;&gt;Node10 -->
<g id="edge9_Node000001_Node000010" class="edge">
<title>Node1&#45;&gt;Node10</title>
<g id="a_edge9_Node000001_Node000010"><a xlink:title=" ">
<path fill="none" stroke="#63b8ff" d="M449.92,-109.98C490.65,-100.84 555.5,-86.27 599.82,-76.32"/>
<polygon fill="#63b8ff" stroke="#63b8ff" points="600.8,-79.69 609.79,-74.08 599.26,-72.86 600.8,-79.69"/>
</a>
</g>
</g>
<!-- Node11 -->
<g id="Node000011" class="node">
<title>Node11</title>
<g id="a_Node000011"><a xlink:title=" ">
<polygon fill="#e0e0e0" stroke="#999999" points="855.5,-74 722.5,-74 722.5,-55 855.5,-55 855.5,-74"/>
<text text-anchor="middle" x="789" y="-62" font-family="Helvetica,sans-Serif" font-size="10.00">freertos/event_groups.h</text>
</a>
</g>
</g>
<!-- Node1&#45;&gt;Node11 -->
<g id="edge10_Node000001_Node000011" class="edge">
<title>Node1&#45;&gt;Node11</title>
<g id="a_edge10_Node000001_Node000011"><a xlink:title=" ">
<path fill="none" stroke="#63b8ff" d="M455.25,-112.42C519.48,-103.39 640.8,-86.34 718.12,-75.46"/>
<polygon fill="#63b8ff" stroke="#63b8ff" points="718.85,-78.9 728.26,-74.04 717.87,-71.96 718.85,-78.9"/>
</a>
</g>
</g>
<!-- Node12 -->
<g id="Node000012" class="node">
<title>Node12</title>
<g id="a_Node000012"><a xlink:title=" ">
<polygon fill="#e0e0e0" stroke="#999999" points="944.5,-74 873.5,-74 873.5,-55 944.5,-55 944.5,-74"/>
<text text-anchor="middle" x="909" y="-62" font-family="Helvetica,sans-Serif" font-size="10.00">nvs_flash.h</text>
</a>
</g>
</g>
<!-- Node1&#45;&gt;Node12 -->
<g id="edge11_Node000001_Node000012" class="edge">
<title>Node1&#45;&gt;Node12</title>
<g id="a_edge11_Node000001_Node000012"><a xlink:title=" ">
<path fill="none" stroke="#63b8ff" d="M455.26,-115.6C534.31,-110 707.59,-96.37 862.83,-74.2"/>
<polygon fill="#63b8ff" stroke="#63b8ff" points="863.63,-77.62 873.03,-72.73 862.63,-70.7 863.63,-77.62"/>
</a>
</g>
</g>
<!-- Node3 -->
<g id="Node000003" class="node">
<title>Node3</title>
<g id="a_Node000003"><a xlink:title=" ">
<polygon fill="#e0e0e0" stroke="#999999" points="73.5,-19 12.5,-19 12.5,0 73.5,0 73.5,-19"/>
<text text-anchor="middle" x="43" y="-7" font-family="Helvetica,sans-Serif" font-size="10.00">esp_err.h</text>
</a>
</g>
</g>
<!-- Node2&#45;&gt;Node3 -->
<g id="edge2_Node000002_Node000003" class="edge">
<title>Node2&#45;&gt;Node3</title>
<g id="a_edge2_Node000002_Node000003"><a xlink:title=" ">
<path fill="none" stroke="#63b8ff" d="M43,-54.75C43,-47.8 43,-37.85 43,-29.13"/>
<polygon fill="#63b8ff" stroke="#63b8ff" points="46.5,-29.09 43,-19.09 39.5,-29.09 46.5,-29.09"/>
</a>
</g>
</g>
</g>
</svg>

<g id="navigator" transform="translate(0 0)" fill="#404254">
  <rect fill="#f2f5e9" fill-opacity="0.5" stroke="#606060" stroke-width=".5" x="0" y="0" width="60" height="60"/>
  <use id="zoomplus" xlink:href="#zoomPlus" x="17" y="9" onmousedown="handleZoom(evt,'in')"/>
  <use id="zoomminus" xlink:href="#zoomMin" x="42" y="9" onmousedown="handleZoom(evt,'out')"/>
  <use id="reset" xlink:href="#resetDef" x="30" y="36" onmousedown="handleReset()"/>
   <use id="arrowup" xlink:href="#arrowUp" x="0" y="0" onmousedown="handlePan(0,-1)"/>
  <use id="arrowright" xlink:href="#arrowRight" x="0" y="0" onmousedown="handlePan(1,0)"/>
  <use id="arrowdown" xlink:href="#arrowDown" x="0" y="0" onmousedown="handlePan(0,1)"/>
  <use id="arrowleft" xlink:href="#arrowLeft" x="0" y="0" onmousedown="handlePan(-1,0)"/>
</g>
<svg viewBox="0 0 15 15" width="100%" height="30px" preserveAspectRatio="xMaxYMin meet">
 <g id="arrow_out" transform="scale(0.3 0.3)">
  <a xlink:href="wifi__connect_8c__incl_org.svg" target="_base">
   <rect id="button" ry="5" rx="5" y="6" x="6" height="38" width="38"
        fill="#f2f5e9" fill-opacity="0.5" stroke="#606060" stroke-width="1.0"/>
   <path id="arrow"
     d="M 11.500037,31.436501 C 11.940474,20.09759 22.043105,11.32322 32.158766,21.979434 L 37.068811,17.246167 C 37.068811,17.246167 37.088388,32 37.088388,32 L 22.160133,31.978069 C 22.160133,31.978069 26.997745,27.140456 26.997745,27.140456 C 18.528582,18.264221 13.291696,25.230495 11.500037,31.436501 z"
     style="fill:#404040;"/>
  </a>
 </g>
</svg>

<style type='text/css'>
<![CDATA[
[data-mouse-over-selected='false'] { opacity: 0.7; }
[data-mouse-over-selected='true']  { opacity: 1.0; }
]]>
</style>
<script type="application/ecmascript"><![CDATA[
document.addEventListener('DOMContentLoaded', (event) => {
  highlightEdges();
  highlightAdjacentNodes();
});
]]></script>
</svg>
